<svg xmlns="http://www.w3.org/2000/svg" viewBox="0 0 64 64">
  <rect width="64" height="64" rx="8" fill="#171a1b"/>
  <path d="M17 16h-3c-3 0-4 2-4 5v6c0 3-1 4-4 5 3 1 4 2 4 5v6c0 3 1 5 4 5h3m30-32h3c3 0 4 2 4 5v6c0 3 1 4 4 5-3 1-4 2-4 5v6c0 3-1 5-4 5h-3" fill="none" stroke="#aeb6b1" stroke-width="3" stroke-linecap="round" stroke-linejoin="round"/>
  <path d="M22 42V22l10 20V22m5 20V22h6c4 0 6 2 6 6s-2 6-6 6h-6m6 0 6 8" fill="none" stroke="#f3f4f1" stroke-width="3.5" stroke-linecap="round" stroke-linejoin="round"/>
</svg>
